<svg width="1000" height="299" viewBox="0 0 1000 299" fill="none" xmlns="http://www.w3.org/2000/svg">
<path d="M309.742 107.988C302.942 104.019 297.639 98.6571 293.832 91.9167C290.026 85.1635 288.116 77.6627 288.116 69.4015C288.116 61.1404 290.026 53.6396 293.832 46.8863C297.639 40.133 302.942 34.7845 309.742 30.8151C316.542 26.8456 324.194 24.8608 332.71 24.8608C339.342 24.8608 345.729 26.3945 351.871 29.4618C358.013 32.5291 363.136 36.7048 367.226 41.976C371.316 47.2472 373.897 53.0339 374.968 59.3361H358.142C357.239 55.7403 355.523 52.5312 352.981 49.7088C350.439 46.8863 347.394 44.6954 343.832 43.1488C340.271 41.5894 336.568 40.8161 332.71 40.8161C327.136 40.8161 322.232 42.0404 317.974 44.502C313.716 46.9507 310.4 50.3531 308.026 54.6835C305.652 59.0138 304.465 63.9242 304.465 69.4015C304.465 74.8789 305.652 79.7892 308.026 84.1195C310.4 88.4499 313.716 91.8523 317.974 94.301C322.232 96.7497 327.148 97.987 332.71 97.987C336.477 97.987 340.155 97.2137 343.768 95.6542C347.368 94.1077 350.465 91.9167 353.045 89.0943C355.626 86.2718 357.368 83.0627 358.271 79.467H374.981C374 85.7692 371.458 91.5559 367.368 96.827C363.277 102.098 358.155 106.274 352.013 109.341C345.871 112.409 339.445 113.942 332.723 113.942C324.207 113.942 316.542 111.957 309.755 107.988H309.742Z" fill="#16232B"/>
<path d="M384.31 21.7935H399.536V112.344H384.31V21.7935Z" fill="#16232B"/>
<path d="M426.684 109.393C421.523 106.287 417.497 102.034 414.581 96.6338C411.678 91.2338 410.219 85.2666 410.219 78.7195C410.219 72.1725 411.678 66.2054 414.581 60.8053C417.484 55.4053 421.523 51.1523 426.684 48.0463C431.845 44.9403 437.652 43.3809 444.129 43.3809C450.607 43.3809 456 44.8887 460.839 47.9174C465.665 50.9461 469.394 55.1218 472.013 60.4316C474.632 65.7543 475.948 71.8374 475.948 78.7195C475.948 85.6017 474.632 91.6848 472.013 96.9947C469.394 102.317 465.665 106.48 460.839 109.509C456 112.537 450.4 114.045 444.013 114.045C437.626 114.045 431.858 112.486 426.697 109.38L426.684 109.393ZM455.923 96.7498C458.955 94.9455 461.342 92.471 463.11 89.3263C464.865 86.1817 465.755 82.6375 465.755 78.7195C465.755 74.8016 464.878 71.2575 463.11 68.1128C461.342 64.9681 458.955 62.4937 455.923 60.6893C452.89 58.885 449.497 57.9958 445.729 57.9958C441.961 57.9958 438.645 58.8979 435.536 60.6893C432.426 62.4937 429.987 64.9681 428.232 68.1128C426.465 71.2575 425.587 74.8016 425.587 78.7195C425.587 82.6375 426.465 86.1817 428.232 89.3263C429.987 92.471 432.426 94.9455 435.536 96.7498C438.645 98.5541 442.052 99.4434 445.729 99.4434C449.407 99.4434 452.89 98.5412 455.923 96.7498ZM465.871 45.0949H481.11V112.331H465.871V45.0949Z" fill="#16232B"/>
<path d="M495.961 45.1076H511.071V64.3751L505.174 71.4892C505.497 66.0119 506.749 61.166 508.916 56.9516C511.084 52.7373 513.936 49.4251 517.458 47.0151C520.981 44.605 524.994 43.3936 529.497 43.3936C531.058 43.3936 532.852 43.5997 534.903 44.0122V58.3693H529.007C525.561 58.3693 522.516 59.0395 519.858 60.3927C517.2 61.7459 515.084 63.8467 513.536 66.7078C511.974 69.5689 511.2 73.126 511.2 77.379V112.344H495.974V45.1076H495.961Z" fill="#16232B"/>
<path d="M542.529 21.7935H558.013V35.9057H542.529V21.7935ZM542.645 45.1077H557.871V112.344H542.645V45.1077Z" fill="#16232B"/>
<path d="M565.987 45.1077H581.961L600.877 97.2522L619.794 45.1077H635.639L610.942 112.344H590.8L565.987 45.1077Z" fill="#16232B"/>
<path d="M654.245 109.393C648.8 106.287 644.516 102.034 641.407 96.6338C638.297 91.2337 636.735 85.2666 636.735 78.7195C636.735 72.1725 638.297 66.3471 641.407 60.9858C644.516 55.6244 648.8 51.3714 654.245 48.2267C659.69 45.0821 665.69 43.4968 672.245 43.4968C678.8 43.4968 684.632 45.0692 690 48.2267C695.368 51.3714 699.6 55.6244 702.71 60.9858C705.819 66.3471 707.381 72.2498 707.381 78.7195C707.381 85.1893 705.819 91.2337 702.71 96.6338C699.6 102.034 695.355 106.287 690 109.393C684.632 112.499 678.671 114.058 672.129 114.058C665.587 114.058 659.703 112.499 654.258 109.393H654.245ZM682.194 96.6982C685.226 94.8552 687.613 92.3679 689.381 89.2103C691.136 86.0657 692.026 82.5601 692.026 78.7195C692.026 74.8789 691.148 71.3734 689.381 68.2288C687.613 65.0841 685.226 62.6096 682.194 60.8053C679.161 59.001 675.807 58.1117 672.116 58.1117C668.426 58.1117 665.058 59.0139 661.987 60.8053C658.916 62.6096 656.503 65.0841 654.735 68.2288C652.968 71.3734 652.09 74.8789 652.09 78.7195C652.09 82.5601 652.968 86.0657 654.735 89.2103C656.49 92.355 658.916 94.8552 661.987 96.6982C665.058 98.5412 668.439 99.4562 672.116 99.4562C675.794 99.4562 679.161 98.5412 682.194 96.6982Z" fill="#16232B"/>
<path d="M729.239 78.2297L707.742 45.1077H724.452L739.561 68.6668L754.542 45.1077H771.252L749.755 78.2297L771.987 112.344H755.278L739.548 88.0503L723.458 112.344H707.123L729.239 78.2297Z" fill="#16232B"/>
<path d="M309.742 211.091C302.942 207.122 297.639 201.76 293.832 195.02C290.026 188.267 288.116 180.766 288.116 172.505C288.116 164.244 290.026 156.743 293.832 149.99C297.639 143.236 302.942 137.888 309.742 133.918C316.542 129.949 324.194 127.964 332.71 127.964C339.342 127.964 345.729 129.498 351.871 132.565C358.013 135.632 363.136 139.808 367.226 145.079C371.316 150.35 373.897 156.137 374.968 162.439H358.142C357.239 158.844 355.523 155.635 352.981 152.812C350.439 149.99 347.394 147.799 343.832 146.252C340.271 144.693 336.568 143.919 332.71 143.919C327.136 143.919 322.232 145.144 317.974 147.605C313.716 150.054 310.4 153.456 308.026 157.787C305.652 162.13 304.465 167.027 304.465 172.505C304.465 177.982 305.652 182.893 308.026 187.223C310.4 191.553 313.716 194.956 317.974 197.404C322.232 199.853 327.148 201.09 332.71 201.09C336.477 201.09 340.155 200.317 343.768 198.758C347.368 197.198 350.465 195.02 353.045 192.198C355.626 189.375 357.368 186.166 358.271 182.57H374.981C374 188.872 371.458 194.659 367.368 199.93C363.277 205.202 358.155 209.377 352.013 212.445C345.871 215.512 339.445 217.045 332.723 217.045C324.207 217.045 316.542 215.061 309.755 211.091H309.742Z" fill="#16232B"/>
<path d="M384.194 148.211H399.303V167.479L393.407 174.593C393.729 169.115 394.981 164.27 397.148 160.055C399.316 155.841 402.168 152.529 405.69 150.119C409.213 147.709 413.226 146.497 417.729 146.497C419.29 146.497 421.084 146.703 423.136 147.116V161.473H417.239C413.794 161.473 410.748 162.143 408.09 163.496C405.432 164.849 403.316 166.95 401.768 169.811C400.206 172.672 399.432 176.23 399.432 180.483V215.448H384.207V148.211H384.194Z" fill="#16232B"/>
<path d="M441.007 212.445C435.561 209.3 431.277 205.047 428.168 199.686C425.058 194.324 423.497 188.383 423.497 181.836C423.497 175.289 425.058 169.438 428.168 164.05C431.277 158.663 435.561 154.385 441.007 151.227C446.452 148.082 452.452 146.497 459.007 146.497C465.561 146.497 470.968 148.069 476.207 151.227C481.445 154.372 485.561 158.65 488.555 164.05C491.548 169.45 493.032 175.379 493.032 181.836C493.032 183.962 492.826 186.05 492.413 188.099L477.923 181.965C477.923 177.957 477.097 174.361 475.471 171.165C473.832 167.981 471.536 165.455 468.594 163.625C465.639 161.782 462.452 160.867 459.007 160.867C455.239 160.867 451.819 161.782 448.748 163.625C445.677 165.468 443.239 167.981 441.445 171.165C439.639 174.361 438.748 177.957 438.748 181.965C438.748 185.973 439.652 189.427 441.445 192.571C443.252 195.716 445.677 198.216 448.748 200.059C451.819 201.902 455.239 202.817 459.007 202.817C462.284 202.817 465.329 202.018 468.155 200.42C470.981 198.822 473.084 196.683 474.477 193.976H491.187C489.303 200.936 485.419 206.529 479.523 210.782C473.626 215.035 466.787 217.162 459.007 217.162C452.452 217.162 446.452 215.589 441.007 212.432V212.445ZM437.381 175.456H481.11L492.413 188.099H437.626L437.381 175.456Z" fill="#16232B"/>
<path d="M516.361 212.496C511.2 209.39 507.174 205.137 504.258 199.737C501.355 194.337 499.897 188.37 499.897 181.823C499.897 175.276 501.355 169.309 504.258 163.909C507.161 158.509 511.2 154.256 516.361 151.15C521.523 148.044 527.329 146.484 533.807 146.484C540.284 146.484 545.678 147.992 550.516 151.021C555.342 154.049 559.071 158.212 561.691 163.535C564.31 168.858 565.626 174.941 565.626 181.81C565.626 188.679 564.31 194.775 561.691 200.085C559.071 205.408 555.342 209.571 550.516 212.599C545.678 215.628 540.078 217.136 533.69 217.136C527.303 217.136 521.536 215.576 516.374 212.47L516.361 212.496ZM545.6 199.853C548.632 198.062 551.02 195.574 552.787 192.43C554.542 189.285 555.432 185.741 555.432 181.81C555.432 177.879 554.555 174.348 552.787 171.203C551.02 168.059 548.632 165.584 545.6 163.78C542.568 161.975 539.174 161.086 535.407 161.086C531.639 161.086 528.323 161.988 525.213 163.78C522.103 165.584 519.665 168.059 517.91 171.203C516.142 174.348 515.265 177.892 515.265 181.81C515.265 185.728 516.142 189.272 517.91 192.43C519.665 195.574 522.103 198.049 525.213 199.853C528.323 201.657 531.729 202.547 535.407 202.547C539.084 202.547 542.568 201.645 545.6 199.853ZM555.549 148.198H570.787V215.435H555.549V148.198Z" fill="#16232B"/>
<path d="M594.607 213.54C591.084 211.542 588.503 208.694 586.865 205.008C585.226 201.322 584.413 196.992 584.413 192.004V132.011H599.639V148.211H618.439V162.813H599.639V190.909C599.639 194.595 600.477 197.25 602.155 198.886C603.832 200.523 606.232 201.335 609.342 201.335H618.426V216.543H607.987C602.581 216.543 598.116 215.538 594.594 213.54H594.607Z" fill="#16232B"/>
<path d="M628.503 124.897H643.987V139.009H628.503V124.897ZM628.619 148.211H643.845V215.448H628.619V148.211Z" fill="#16232B"/>
<path d="M651.974 148.211H667.948L686.865 200.356L705.781 148.211H721.626L696.929 215.447H676.787L651.974 148.211Z" fill="#16232B"/>
<path d="M740.232 212.445C734.787 209.3 730.503 205.047 727.394 199.686C724.284 194.324 722.723 188.383 722.723 181.836C722.723 175.289 724.284 169.438 727.394 164.05C730.503 158.663 734.787 154.385 740.232 151.227C745.678 148.082 751.678 146.497 758.232 146.497C764.787 146.497 770.194 148.069 775.432 151.227C780.671 154.372 784.787 158.65 787.781 164.05C790.774 169.45 792.258 175.379 792.258 181.836C792.258 183.962 792.052 186.05 791.639 188.099L777.148 181.965C777.148 177.957 776.323 174.361 774.697 171.165C773.058 167.981 770.761 165.455 767.819 163.625C764.865 161.782 761.678 160.867 758.232 160.867C754.465 160.867 751.045 161.782 747.974 163.625C744.903 165.468 742.465 167.981 740.671 171.165C738.865 174.361 737.974 177.957 737.974 181.965C737.974 185.973 738.878 189.427 740.671 192.571C742.478 195.716 744.903 198.216 747.974 200.059C751.045 201.902 754.465 202.817 758.232 202.817C761.51 202.817 764.555 202.018 767.381 200.42C770.207 198.822 772.31 196.683 773.703 193.976H790.413C788.529 200.936 784.645 206.529 778.749 210.782C772.852 215.035 766.013 217.162 758.232 217.162C751.678 217.162 745.678 215.589 740.232 212.432V212.445ZM736.607 175.456H780.336L791.639 188.099H736.852L736.607 175.456Z" fill="#16232B"/>
<path d="M810.245 214.223C806.761 212.342 804.077 209.648 802.194 206.13C800.31 202.611 799.368 198.603 799.368 194.105H814.348C814.426 197.044 815.161 199.325 816.555 200.91C817.948 202.508 820 203.307 822.697 203.307C825.239 203.307 827.161 202.74 828.465 201.593C829.768 200.446 830.426 198.809 830.426 196.683C830.426 195.214 829.936 193.938 828.955 192.881C827.974 191.824 826.761 190.896 825.329 190.123C823.897 189.35 821.91 188.422 819.368 187.365C815.523 185.728 812.361 184.169 809.91 182.699C807.458 181.23 805.368 179.181 803.639 176.565C801.923 173.948 801.058 170.636 801.058 166.628C801.058 162.62 801.974 159.089 803.819 156.021C805.665 152.954 808.245 150.608 811.561 148.972C814.877 147.335 818.619 146.523 822.8 146.523C827.548 146.523 831.626 147.438 835.019 149.281C838.413 151.124 840.994 153.702 842.761 157.014C844.516 160.326 845.355 164.154 845.277 168.484H830.297C830.297 166.035 829.665 164.128 828.387 162.775C827.123 161.421 825.252 160.751 822.8 160.751C820.748 160.751 819.148 161.305 818.013 162.414C816.865 163.522 816.297 164.927 816.297 166.641C816.297 168.033 816.748 169.244 817.652 170.262C818.555 171.281 819.716 172.183 821.148 172.956C822.581 173.729 824.529 174.619 826.981 175.598C830.916 177.312 834.103 178.885 836.568 180.328C839.019 181.759 841.148 183.821 842.955 186.527C844.761 189.221 845.652 192.623 845.652 196.709C845.652 200.794 844.736 204.377 842.89 207.444C841.045 210.512 838.361 212.883 834.839 214.558C831.316 216.234 827.226 217.071 822.555 217.071C817.884 217.071 813.69 216.131 810.206 214.249L810.245 214.223Z" fill="#16232B"/>
<path d="M302.065 248.325H316.671V251.456H305.381V274.861H317.097V277.993H302.078V248.312L302.065 248.325ZM305.123 261.509H316.374V264.641H305.123V261.509Z" fill="#333333"/>
<path d="M325.6 276.871C323.781 275.815 322.336 274.371 321.265 272.554C320.207 270.724 319.677 268.726 319.677 266.548C319.677 264.37 320.207 262.334 321.265 260.504C322.323 258.687 323.768 257.243 325.6 256.186C327.432 255.13 329.445 254.601 331.652 254.601C333.497 254.601 335.187 254.962 336.723 255.684C338.271 256.405 339.561 257.411 340.607 258.687C341.652 259.975 342.336 261.457 342.645 263.159H339.329C338.878 261.496 337.936 260.143 336.529 259.138C335.11 258.12 333.484 257.617 331.652 257.617C330.039 257.617 328.555 258.016 327.213 258.803C325.871 259.589 324.8 260.671 324.013 262.025C323.226 263.378 322.826 264.899 322.826 266.561C322.826 268.224 323.226 269.693 324.013 271.059C324.8 272.412 325.871 273.495 327.213 274.281C328.555 275.067 330.039 275.467 331.652 275.467C333.458 275.467 335.084 274.964 336.516 273.946C337.948 272.928 338.89 271.6 339.342 269.963H342.658C342.348 271.626 341.665 273.121 340.594 274.41C339.536 275.711 338.232 276.717 336.684 277.413C335.136 278.122 333.458 278.47 331.652 278.47C329.445 278.47 327.432 277.941 325.6 276.884V276.871Z" fill="#333333"/>
<path d="M346.8 246.714H349.987V278.006H346.8V246.714ZM361.484 259.434C360.323 258.223 358.787 257.604 356.852 257.604C355.523 257.604 354.336 257.887 353.29 258.455C352.245 259.022 351.432 259.808 350.852 260.813C350.271 261.818 349.987 262.94 349.987 264.19L348.761 262.244C348.903 260.8 349.368 259.498 350.155 258.339C350.942 257.179 351.974 256.277 353.226 255.619C354.49 254.975 355.884 254.64 357.407 254.64C359.187 254.64 360.761 255.039 362.116 255.851C363.471 256.663 364.529 257.784 365.277 259.228C366.026 260.671 366.4 262.334 366.4 264.228V278.006H363.213V264.228C363.213 262.244 362.632 260.658 361.471 259.434H361.484Z" fill="#333333"/>
<path d="M376.168 276.871C374.323 275.814 372.878 274.371 371.82 272.554C370.761 270.724 370.232 268.713 370.232 266.509C370.232 264.306 370.761 262.334 371.82 260.504C372.878 258.686 374.336 257.243 376.168 256.199C378 255.155 380.013 254.627 382.194 254.627C384.374 254.627 386.413 255.155 388.22 256.199C390.026 257.243 391.471 258.674 392.529 260.504C393.587 262.334 394.116 264.331 394.116 266.509C394.116 268.687 393.587 270.724 392.529 272.554C391.471 274.371 390.026 275.814 388.22 276.871C386.413 277.928 384.4 278.456 382.194 278.456C379.987 278.456 378 277.928 376.168 276.871ZM386.607 274.268C387.936 273.482 388.994 272.399 389.768 271.046C390.542 269.693 390.929 268.172 390.929 266.509C390.929 264.847 390.529 263.378 389.742 262.011C388.955 260.658 387.884 259.589 386.555 258.815C385.226 258.042 383.755 257.655 382.142 257.655C380.529 257.655 379.058 258.042 377.729 258.815C376.4 259.589 375.342 260.658 374.568 262.011C373.794 263.365 373.407 264.873 373.407 266.509C373.407 268.146 373.807 269.693 374.594 271.046C375.381 272.399 376.452 273.482 377.781 274.268C379.11 275.054 380.581 275.454 382.194 275.454C383.807 275.454 385.278 275.054 386.607 274.268Z" fill="#333333"/>
<path d="M398.71 246.714H401.936V251.25H398.71V246.714ZM398.749 255.065H401.936V278.006H398.749V255.065Z" fill="#333333"/>
<path d="M408.258 255.065H411.445V278.005H408.258V255.065ZM422.736 259.434C421.6 258.222 420.078 257.604 418.155 257.604C416.878 257.604 415.729 257.887 414.71 258.454C413.691 259.021 412.891 259.808 412.31 260.813C411.729 261.818 411.445 262.939 411.445 264.19L410.258 262.243C410.4 260.8 410.852 259.498 411.613 258.338C412.374 257.179 413.381 256.276 414.632 255.619C415.871 254.975 417.252 254.64 418.749 254.64C420.503 254.64 422.052 255.039 423.394 255.851C424.736 256.65 425.781 257.784 426.516 259.228C427.252 260.671 427.626 262.334 427.626 264.228V278.005H424.439V264.228C424.439 262.244 423.871 260.658 422.736 259.434Z" fill="#333333"/>
<path d="M448.078 282.452C447.252 281.627 446.039 281.227 444.426 281.227H431.432V278.134L436.607 270.543L439.368 272.193L434.697 278.766L433.845 278.134H445.045C447.419 278.134 449.252 278.804 450.542 280.145C451.832 281.485 452.478 283.393 452.478 285.841H449.29C449.29 284.398 448.878 283.264 448.065 282.452H448.078ZM437.213 272.618C435.742 271.793 434.594 270.659 433.755 269.19C432.916 267.721 432.503 266.058 432.503 264.19C432.503 262.437 432.929 260.826 433.781 259.357C434.632 257.887 435.781 256.727 437.239 255.864C438.697 255 440.297 254.575 442.052 254.575C443.807 254.575 445.458 255 446.916 255.864C448.374 256.727 449.523 257.887 450.374 259.357C451.226 260.826 451.652 262.437 451.652 264.19C451.652 265.942 451.226 267.592 450.374 269.061C449.523 270.53 448.361 271.69 446.89 272.554C445.419 273.417 443.794 273.843 442.013 273.843C440.232 273.843 438.684 273.43 437.213 272.618ZM445.316 269.899C446.31 269.306 447.097 268.507 447.678 267.476C448.258 266.458 448.542 265.362 448.542 264.164C448.542 262.965 448.258 261.844 447.678 260.839C447.097 259.833 446.31 259.047 445.316 258.467C444.323 257.887 443.239 257.604 442.052 257.604C440.865 257.604 439.781 257.9 438.787 258.467C437.794 259.047 437.019 259.833 436.452 260.839C435.884 261.844 435.6 262.952 435.6 264.164C435.6 265.375 435.884 266.535 436.452 267.54C437.019 268.546 437.794 269.332 438.787 269.912C439.781 270.492 440.865 270.775 442.052 270.775C443.239 270.775 444.336 270.479 445.316 269.886V269.899ZM445.949 257.398L449.974 252.062L452.516 253.931L448.568 259.189L445.936 257.41L445.949 257.398Z" fill="#333333"/>
<path d="M470.142 277.993H466.955L467.045 246.701H470.181L470.142 277.993ZM479.136 278.457C476.955 278.457 474.994 277.928 473.239 276.871C471.484 275.815 470.116 274.384 469.149 272.567C468.168 270.762 467.691 268.752 467.691 266.548C467.691 264.344 468.181 262.295 469.149 260.491C470.116 258.686 471.484 257.243 473.239 256.186C474.994 255.129 476.955 254.601 479.136 254.601C481.316 254.601 483.303 255.129 485.097 256.186C486.891 257.243 488.297 258.686 489.316 260.504C490.336 262.334 490.839 264.344 490.839 266.548C490.839 268.752 490.336 270.724 489.316 272.554C488.297 274.371 486.891 275.815 485.097 276.871C483.303 277.928 481.316 278.457 479.136 278.457ZM478.878 275.441C480.491 275.441 481.974 275.041 483.316 274.255C484.658 273.469 485.716 272.399 486.503 271.059C487.278 269.719 487.665 268.211 487.665 266.548C487.665 264.886 487.278 263.339 486.503 261.986C485.729 260.645 484.658 259.576 483.316 258.79C481.974 258.003 480.491 257.604 478.878 257.604C477.265 257.604 475.794 258.003 474.465 258.79C473.136 259.576 472.078 260.645 471.303 261.986C470.529 263.326 470.142 264.847 470.142 266.548C470.142 268.249 470.529 269.719 471.303 271.059C472.078 272.399 473.136 273.469 474.465 274.255C475.794 275.041 477.265 275.441 478.878 275.441Z" fill="#333333"/>
<path d="M495.484 255.065H498.62V262.359L497.213 263.378C497.329 261.715 497.807 260.207 498.632 258.867C499.471 257.526 500.542 256.47 501.858 255.709C503.174 254.949 504.62 254.562 506.207 254.562C506.8 254.562 507.381 254.627 507.949 254.768V257.694H506.168C504.723 257.694 503.433 257.99 502.31 258.583C501.174 259.176 500.284 260.052 499.639 261.212C498.994 262.372 498.658 263.777 498.658 265.414V278.005H495.471V255.065H495.484Z" fill="#333333"/>
<path d="M511.097 246.714H514.323V251.25H511.097V246.714ZM511.136 255.065H514.323V278.006H511.136V255.065Z" fill="#333333"/>
<path d="M520.645 246.714H523.832V278.006H520.645V246.714Z" fill="#333333"/>
<path d="M530.155 246.714H533.342V278.006H530.155V246.714Z" fill="#333333"/>
<path d="M539.626 246.714H542.852V251.25H539.626V246.714ZM539.665 255.065H542.852V278.006H539.665V255.065Z" fill="#333333"/>
<path d="M553.226 276.871C551.432 275.815 550.026 274.371 549.007 272.554C547.987 270.724 547.484 268.726 547.484 266.548C547.484 264.37 547.987 262.334 549.007 260.504C550.026 258.687 551.432 257.243 553.226 256.186C555.02 255.13 557.007 254.601 559.187 254.601C561.368 254.601 563.329 255.13 565.084 256.186C566.839 257.243 568.207 258.687 569.174 260.491C570.155 262.295 570.645 264.319 570.645 266.548C570.645 268.778 570.155 270.763 569.174 272.567C568.194 274.371 566.839 275.815 565.084 276.871C563.329 277.928 561.368 278.457 559.187 278.457C557.007 278.457 555.02 277.928 553.226 276.871ZM563.858 274.268C565.187 273.482 566.245 272.412 567.02 271.072C567.794 269.732 568.181 268.224 568.181 266.561C568.181 264.899 567.794 263.352 567.02 261.999C566.245 260.658 565.187 259.589 563.858 258.803C562.529 258.016 561.058 257.617 559.445 257.617C557.832 257.617 556.349 258.016 555.007 258.803C553.665 259.589 552.607 260.658 551.819 261.999C551.045 263.339 550.658 264.86 550.658 266.561C550.658 268.262 551.045 269.732 551.819 271.072C552.594 272.412 553.652 273.482 555.007 274.268C556.349 275.054 557.832 275.454 559.445 275.454C561.058 275.454 562.529 275.054 563.858 274.268ZM568.194 255.065H571.381V278.006H568.194V255.065Z" fill="#333333"/>
<path d="M577.691 255.065H580.878V278.005H577.691V255.065ZM592.168 259.434C591.032 258.222 589.51 257.604 587.587 257.604C586.31 257.604 585.162 257.887 584.142 258.454C583.123 259.021 582.323 259.808 581.742 260.813C581.161 261.818 580.878 262.939 580.878 264.19L579.691 262.243C579.832 260.8 580.284 259.498 581.045 258.338C581.807 257.179 582.813 256.276 584.065 255.619C585.303 254.975 586.684 254.64 588.181 254.64C589.936 254.64 591.484 255.039 592.826 255.851C594.168 256.65 595.213 257.784 595.949 259.228C596.684 260.671 597.058 262.334 597.058 264.228V278.005H593.871V264.228C593.871 262.244 593.303 260.658 592.168 259.434Z" fill="#333333"/>
<path d="M606.839 276.871C605.02 275.815 603.574 274.371 602.503 272.554C601.445 270.724 600.916 268.726 600.916 266.548C600.916 264.37 601.445 262.334 602.503 260.504C603.562 258.687 605.007 257.243 606.839 256.186C608.671 255.13 610.684 254.601 612.891 254.601C614.736 254.601 616.426 254.962 617.961 255.684C619.51 256.405 620.8 257.411 621.845 258.687C622.891 259.975 623.574 261.457 623.884 263.159H620.568C620.116 261.496 619.174 260.143 617.768 259.138C616.349 258.12 614.723 257.617 612.891 257.617C611.278 257.617 609.794 258.016 608.452 258.803C607.11 259.589 606.039 260.671 605.252 262.025C604.465 263.378 604.065 264.899 604.065 266.561C604.065 268.224 604.465 269.693 605.252 271.059C606.039 272.412 607.11 273.495 608.452 274.281C609.794 275.067 611.278 275.467 612.891 275.467C614.697 275.467 616.323 274.964 617.755 273.946C619.187 272.928 620.129 271.6 620.581 269.963H623.897C623.587 271.626 622.903 273.121 621.832 274.41C620.774 275.711 619.471 276.717 617.923 277.413C616.374 278.122 614.697 278.47 612.891 278.47C610.684 278.47 608.671 277.941 606.839 276.884V276.871Z" fill="#333333"/>
<path d="M632.555 276.871C630.736 275.815 629.29 274.371 628.22 272.554C627.161 270.724 626.632 268.726 626.632 266.548C626.632 264.37 627.161 262.334 628.22 260.504C629.278 258.687 630.723 257.243 632.555 256.186C634.387 255.13 636.4 254.601 638.607 254.601C640.813 254.601 642.723 255.13 644.503 256.186C646.284 257.243 647.691 258.687 648.723 260.504C649.755 262.334 650.271 264.344 650.271 266.548C650.271 267.025 650.22 267.515 650.103 267.992L647.045 266.548C647.045 264.886 646.671 263.365 645.936 262.012C645.2 260.658 644.181 259.576 642.878 258.79C641.574 258.003 640.142 257.604 638.594 257.604C637.045 257.604 635.497 258.003 634.155 258.79C632.813 259.576 631.755 260.658 630.968 262.012C630.194 263.365 629.807 264.886 629.807 266.548C629.807 268.211 630.194 269.68 630.968 271.046C631.742 272.399 632.8 273.482 634.155 274.268C635.497 275.054 636.981 275.454 638.594 275.454C640.207 275.454 641.69 275.028 643.045 274.178C644.4 273.327 645.368 272.206 645.936 270.788H649.497C648.787 273.082 647.432 274.925 645.445 276.343C643.445 277.761 641.161 278.47 638.594 278.47C636.387 278.47 634.374 277.941 632.542 276.884L632.555 276.871ZM629.523 265.105H647.691L650.116 267.992H629.574L629.536 265.105H629.523Z" fill="#333333"/>
<path d="M658.168 274.397L654.516 283.766H651.755L654.516 274.397H658.168Z" fill="#333333"/>
<path d="M677.2 276.871C675.407 275.815 674 274.371 672.981 272.554C671.961 270.724 671.458 268.726 671.458 266.548C671.458 264.37 671.961 262.334 672.981 260.504C674 258.687 675.407 257.243 677.2 256.186C678.994 255.13 680.981 254.601 683.161 254.601C685.342 254.601 687.303 255.13 689.058 256.186C690.813 257.243 692.181 258.687 693.149 260.491C694.129 262.295 694.62 264.319 694.62 266.548C694.62 268.778 694.129 270.763 693.149 272.567C692.168 274.371 690.813 275.815 689.058 276.871C687.303 277.928 685.342 278.457 683.161 278.457C680.981 278.457 678.994 277.928 677.2 276.871ZM687.832 274.268C689.161 273.482 690.22 272.412 690.994 271.072C691.768 269.732 692.155 268.224 692.155 266.561C692.155 264.899 691.768 263.352 690.994 261.999C690.22 260.658 689.161 259.589 687.832 258.803C686.503 258.016 685.032 257.617 683.42 257.617C681.807 257.617 680.323 258.016 678.981 258.803C677.639 259.589 676.581 260.658 675.794 261.999C675.02 263.339 674.632 264.86 674.632 266.561C674.632 268.262 675.02 269.732 675.794 271.072C676.568 272.412 677.626 273.482 678.981 274.268C680.323 275.054 681.807 275.454 683.42 275.454C685.032 275.454 686.503 275.054 687.832 274.268ZM692.168 255.065H695.355V278.006H692.168V255.065Z" fill="#333333"/>
<path d="M701.678 255.065H704.865V278.005H701.678V255.065ZM714.116 259.15C713.097 258.119 711.82 257.604 710.297 257.604C709.278 257.604 708.349 257.849 707.523 258.326C706.684 258.802 706.039 259.473 705.574 260.323C705.11 261.174 704.878 262.115 704.878 263.159L703.6 261.754C703.716 260.4 704.116 259.163 704.813 258.068C705.51 256.959 706.387 256.122 707.471 255.529C708.542 254.936 709.703 254.64 710.955 254.64C712.478 254.64 713.845 254.988 715.032 255.696C716.22 256.405 717.149 257.41 717.807 258.712C718.465 260.014 718.8 261.496 718.8 263.159V277.993H715.665V263.159C715.665 261.522 715.162 260.181 714.142 259.15H714.116ZM728.078 259.15C727.084 258.119 725.82 257.604 724.258 257.604C723.239 257.604 722.31 257.849 721.484 258.326C720.645 258.802 719.987 259.473 719.51 260.323C719.032 261.174 718.787 262.115 718.787 263.159L716.62 261.251C716.813 259.975 717.316 258.841 718.103 257.836C718.891 256.831 719.897 256.044 721.097 255.477C722.297 254.91 723.561 254.627 724.891 254.627C726.387 254.627 727.742 254.975 728.942 255.684C730.142 256.392 731.084 257.398 731.742 258.699C732.4 260.001 732.736 261.483 732.736 263.146V277.98H729.549V263.146C729.549 261.509 729.058 260.169 728.065 259.137L728.078 259.15Z" fill="#333333"/>
<path d="M738.426 255.065H741.613V261.213L741.652 285.287H738.516L738.426 255.065ZM756.62 256.186C758.413 257.243 759.82 258.687 760.839 260.504C761.858 262.334 762.361 264.344 762.361 266.548C762.361 268.752 761.858 270.724 760.839 272.554C759.82 274.371 758.413 275.815 756.62 276.871C754.826 277.928 752.839 278.457 750.658 278.457C748.478 278.457 746.516 277.928 744.761 276.871C743.007 275.815 741.639 274.384 740.671 272.567C739.691 270.763 739.213 268.752 739.213 266.548C739.213 264.344 739.703 262.295 740.671 260.491C741.652 258.687 743.007 257.243 744.761 256.186C746.516 255.13 748.478 254.601 750.658 254.601C752.839 254.601 754.826 255.13 756.62 256.186ZM745.987 258.79C744.658 259.576 743.6 260.646 742.826 261.986C742.052 263.326 741.652 264.847 741.652 266.548C741.652 268.249 742.039 269.719 742.826 271.059C743.6 272.399 744.658 273.469 745.987 274.255C747.316 275.041 748.787 275.441 750.4 275.441C752.013 275.441 753.497 275.041 754.839 274.255C756.181 273.469 757.239 272.399 758.026 271.059C758.813 269.719 759.2 268.211 759.2 266.548C759.2 264.886 758.813 263.339 758.026 261.986C757.252 260.646 756.181 259.576 754.839 258.79C753.497 258.003 752.013 257.604 750.4 257.604C748.787 257.604 747.316 258.003 745.987 258.79Z" fill="#333333"/>
<path d="M766.994 246.714H770.181V278.006H766.994V246.714Z" fill="#333333"/>
<path d="M776.465 246.714H779.691V251.25H776.465V246.714ZM776.503 255.065H779.691V278.006H776.503V255.065Z" fill="#333333"/>
<path d="M786.942 250C787.562 248.969 788.439 248.157 789.549 247.577C790.658 246.997 791.961 246.714 793.432 246.714H796.361V249.845H793.432C792.103 249.845 791.058 250.193 790.31 250.902C789.561 251.611 789.187 252.475 789.187 253.493V255.065H796.361V258.158H789.187V277.993H786V253.493C786 252.191 786.31 251.031 786.929 250H786.942Z" fill="#333333"/>
<path d="M808.465 276.639L808.374 279.307L798.31 255.052H801.665L810.116 275.698H809.007L817.458 255.052H820.852L808.116 285.236H804.684L808.465 276.626V276.639Z" fill="#333333"/>
<path d="M824.258 246.714H827.484V251.25H824.258V246.714ZM824.297 255.065H827.484V278.006H824.297V255.065Z" fill="#333333"/>
<path d="M833.807 255.065H836.994V278.005H833.807V255.065ZM848.284 259.434C847.149 258.222 845.626 257.604 843.703 257.604C842.426 257.604 841.278 257.887 840.258 258.454C839.239 259.021 838.439 259.808 837.858 260.813C837.278 261.818 836.994 262.939 836.994 264.19L835.807 262.243C835.949 260.8 836.4 259.498 837.161 258.338C837.923 257.179 838.929 256.276 840.181 255.619C841.42 254.975 842.8 254.64 844.297 254.64C846.052 254.64 847.6 255.039 848.942 255.851C850.284 256.65 851.329 257.784 852.065 259.228C852.8 260.671 853.174 262.334 853.174 264.228V278.005H849.987V264.228C849.987 262.244 849.42 260.658 848.284 259.434Z" fill="#333333"/>
<path d="M873.613 282.452C872.787 281.627 871.574 281.227 869.961 281.227H856.968V278.134L862.142 270.543L864.903 272.193L860.232 278.766L859.381 278.134H870.581C872.955 278.134 874.787 278.804 876.078 280.145C877.368 281.485 878.013 283.393 878.013 285.841H874.826C874.826 284.398 874.413 283.264 873.6 282.452H873.613ZM862.749 272.618C861.278 271.793 860.129 270.659 859.291 269.19C858.452 267.721 858.039 266.058 858.039 264.19C858.039 262.437 858.465 260.826 859.316 259.357C860.168 257.887 861.316 256.727 862.774 255.864C864.233 255 865.833 254.575 867.587 254.575C869.342 254.575 870.994 255 872.452 255.864C873.91 256.727 875.058 257.887 875.91 259.357C876.762 260.826 877.187 262.437 877.187 264.19C877.187 265.942 876.762 267.592 875.91 269.061C875.058 270.53 873.897 271.69 872.426 272.554C870.955 273.417 869.329 273.843 867.549 273.843C865.768 273.843 864.22 273.43 862.749 272.618ZM870.852 269.899C871.845 269.306 872.632 268.507 873.213 267.476C873.794 266.458 874.078 265.362 874.078 264.164C874.078 262.965 873.794 261.844 873.213 260.839C872.632 259.833 871.845 259.047 870.852 258.467C869.858 257.887 868.774 257.604 867.587 257.604C866.4 257.604 865.316 257.9 864.323 258.467C863.329 259.047 862.555 259.833 861.987 260.839C861.42 261.844 861.136 262.952 861.136 264.164C861.136 265.375 861.42 266.535 861.987 267.54C862.555 268.546 863.329 269.332 864.323 269.912C865.316 270.492 866.4 270.775 867.587 270.775C868.774 270.775 869.871 270.479 870.852 269.886V269.899ZM871.484 257.398L875.51 252.062L878.052 253.931L874.103 259.189L871.471 257.41L871.484 257.398Z" fill="#333333"/>
<path d="M899.807 276.639L899.716 279.307L889.652 255.052H893.007L901.458 275.698H900.349L908.8 255.052H912.194L899.458 285.236H896.026L899.807 276.626V276.639Z" fill="#333333"/>
<path d="M919.162 276.871C917.316 275.814 915.871 274.371 914.813 272.554C913.755 270.724 913.226 268.713 913.226 266.509C913.226 264.306 913.755 262.334 914.813 260.504C915.871 258.686 917.329 257.243 919.162 256.199C920.994 255.155 923.007 254.627 925.187 254.627C927.368 254.627 929.407 255.155 931.213 256.199C933.02 257.243 934.465 258.674 935.523 260.504C936.581 262.334 937.11 264.331 937.11 266.509C937.11 268.687 936.581 270.724 935.523 272.554C934.465 274.371 933.02 275.814 931.213 276.871C929.407 277.928 927.394 278.456 925.187 278.456C922.981 278.456 920.994 277.928 919.162 276.871ZM929.6 274.268C930.929 273.482 931.987 272.399 932.762 271.046C933.536 269.693 933.923 268.172 933.923 266.509C933.923 264.847 933.523 263.378 932.736 262.011C931.949 260.658 930.878 259.589 929.549 258.815C928.22 258.042 926.749 257.655 925.136 257.655C923.523 257.655 922.052 258.042 920.723 258.815C919.394 259.589 918.336 260.658 917.562 262.011C916.787 263.365 916.4 264.873 916.4 266.509C916.4 268.146 916.8 269.693 917.587 271.046C918.374 272.399 919.445 273.482 920.774 274.268C922.103 275.054 923.574 275.454 925.187 275.454C926.8 275.454 928.271 275.054 929.6 274.268Z" fill="#333333"/>
<path d="M945.665 277.232C944.181 276.407 943.032 275.247 942.207 273.752C941.381 272.257 940.981 270.543 940.981 268.623V255.052H944.168V268.623C944.168 269.925 944.439 271.085 944.994 272.116C945.549 273.147 946.336 273.946 947.355 274.513C948.374 275.08 949.536 275.363 950.839 275.363C952.142 275.363 953.239 275.08 954.232 274.513C955.226 273.946 956 273.147 956.542 272.116C957.084 271.085 957.368 269.912 957.368 268.623V255.052H960.503V268.623C960.503 270.543 960.091 272.257 959.278 273.752C958.452 275.247 957.316 276.407 955.832 277.232C954.349 278.057 952.671 278.456 950.787 278.456C948.903 278.456 947.161 278.044 945.678 277.232H945.665Z" fill="#333333"/>
<path d="M964.787 274.049H968.736V277.993H964.787V274.049Z" fill="#333333"/>
<path d="M972.297 274.049H976.246V277.993H972.297V274.049Z" fill="#333333"/>
<path d="M979.807 274.049H983.755V277.993H979.807V274.049Z" fill="#333333"/>
<path d="M174.245 146.304C169.174 143.34 165.148 139.319 162.181 134.254C159.2 129.189 157.716 123.595 157.716 117.474C157.716 111.352 159.2 105.758 162.181 100.694C165.148 95.6286 169.174 91.6075 174.245 88.6433C179.316 85.6791 184.916 84.1841 191.045 84.1841C197.174 84.1841 202.89 85.6533 207.987 88.5917C213.084 91.5302 217.11 95.5512 220.052 100.642C222.993 105.733 224.464 111.339 224.464 117.474C224.464 123.608 222.993 129.202 220.052 134.305C217.11 139.396 213.084 143.417 207.987 146.355C202.89 149.294 197.239 150.763 191.045 150.763C184.852 150.763 179.316 149.281 174.245 146.304Z" fill="#FF5B04"/>
<path d="M201.716 168.329L201.703 168.355C201.536 168.652 201.355 168.961 201.187 169.257C200.8 169.915 200.413 170.572 200.026 171.229C198.8 173.24 197.523 175.199 196.181 177.106C194.4 179.645 192.516 182.068 190.542 184.401C189.381 185.767 188.181 187.107 186.942 188.409C180.323 195.394 172.684 201.374 164.052 206.362C148.348 215.422 130.968 219.945 111.91 219.945C92.8516 219.945 75.7935 215.37 60.1935 206.22C44.5806 197.082 32.2065 184.71 23.0452 169.115C13.8839 153.534 9.30322 136.316 9.30322 117.461C9.30322 98.6056 13.8839 81.3873 23.0452 65.8058C32.1935 50.2243 44.5806 37.8519 60.1935 28.7015C75.7935 19.5639 93.0323 14.9758 111.91 14.9758C130.787 14.9758 148.348 19.5124 164.052 28.5597C172.684 33.5473 180.31 39.5273 186.942 46.5126C188.181 47.8143 189.381 49.1418 190.542 50.5208C192.529 52.8535 194.4 55.2893 196.181 57.8153C197.523 59.7098 198.8 61.6817 200.026 63.6922C200.065 63.7567 200.116 63.8211 200.155 63.8984C199.458 63.8597 198.748 63.8469 198.026 63.8469C193.097 63.8469 188.477 64.749 184.194 66.5662C181.445 66.7982 178.735 65.4837 177.239 63.0865L157.2 31.0084L167.2 67.6359C167.742 69.6207 166.968 71.7472 165.265 72.9071C162.877 74.5439 159.677 74.3634 157.484 72.456L112.103 33.1736L150.465 80.8976C152.323 83.2045 152.477 86.4394 150.865 88.9139C149.226 91.4141 146.155 92.5741 143.277 91.7621L106.658 81.4905L142.271 102.704C143.574 103.477 144.206 105.037 143.794 106.493C143.11 108.942 140.994 110.733 138.465 111.004L36.4129 117.461L138.465 123.918C141.006 124.188 143.11 125.967 143.794 128.428C144.206 129.885 143.574 131.444 142.271 132.217L106.658 153.431L143.277 143.159C146.155 142.347 149.226 143.507 150.865 146.007C152.477 148.482 152.323 151.717 150.465 154.024L112.103 201.748L157.484 162.465C158.684 161.434 160.168 160.906 161.665 160.906C162.916 160.906 164.168 161.28 165.265 162.014C166.968 163.174 167.742 165.301 167.2 167.285L157.2 203.913L177.239 171.835C178.955 169.09 182.245 167.762 185.381 168.548L185.703 168.626V168.548C188.077 169.038 190.555 169.283 193.11 169.283C196.103 169.283 198.968 168.961 201.716 168.316V168.329Z" fill="#16232B"/>
</svg>
