<?xml version="1.0" encoding="UTF-8"?>
<svg id="Layer_1" data-name="Layer 1" xmlns="http://www.w3.org/2000/svg" viewBox="0 0 1080 1080">
  <defs>
    <style>
      .cls-1 {
        fill: #16232b;
      }
    </style>
  </defs>
  <path class="cls-1" d="m684.94,631.88c-14.88-8.73-26.69-20.54-35.42-35.42-8.73-14.88-13.1-31.32-13.1-49.32s4.36-34.44,13.1-49.32c8.73-14.88,20.54-26.68,35.42-35.42,14.88-8.73,31.32-13.1,49.32-13.1s34.75,4.32,49.72,12.96c14.97,8.65,26.77,20.45,35.42,35.42,8.64,14.97,12.96,31.45,12.96,49.45s-4.32,34.48-12.96,49.45c-8.65,14.97-20.45,26.78-35.42,35.42-14.97,8.65-31.54,12.96-49.72,12.96s-34.44-4.36-49.32-13.1Z"/>
  <path class="cls-1" d="m765.59,696.6s-.04.07-.05.09c-.5.89-1.01,1.78-1.52,2.67-1.13,1.95-2.26,3.87-3.43,5.78-3.58,5.93-7.34,11.68-11.28,17.27-5.22,7.44-10.74,14.6-16.56,21.45-3.4,4.02-6.92,7.94-10.56,11.76-19.44,20.53-41.84,38.11-67.19,52.75-46.08,26.62-97.1,39.91-153.05,39.91s-106.01-13.44-151.79-40.32c-45.81-26.87-82.16-63.21-109.03-109.03-26.88-45.79-40.32-96.39-40.32-151.79s13.44-106,40.32-151.81c26.87-45.8,63.21-82.14,109.03-109.03,45.79-26.87,96.39-40.32,151.79-40.32s106.97,13.32,153.05,39.91c25.34,14.64,47.74,32.22,67.19,52.75,3.62,3.82,7.14,7.73,10.56,11.76,5.82,6.86,11.34,14.01,16.56,21.45,3.94,5.59,7.69,11.36,11.28,17.28.12.2.25.39.37.6-2.05-.1-4.13-.16-6.24-.16-14.48,0-28.02,2.67-40.61,7.99-8.08.68-16.03-3.19-20.41-10.24l-58.82-94.28,29.36,107.65c1.6,5.85-.69,12.07-5.69,15.5-7.03,4.8-16.41,4.26-22.84-1.31l-133.2-115.45,112.59,140.24c5.44,6.78,5.91,16.27,1.16,23.56-4.8,7.35-13.81,10.74-22.27,8.36l-107.5-30.17,104.54,62.32c3.83,2.28,5.66,6.84,4.46,11.13-2,7.21-8.2,12.47-15.65,13.25l-299.56,18.98,299.56,18.98c7.44.78,13.64,6.03,15.65,13.24,1.2,4.29-.63,8.86-4.46,11.13l-104.54,62.32,107.5-30.17c8.45-2.38,17.46,1.01,22.27,8.36,4.75,7.29,4.28,16.78-1.16,23.56l-112.59,140.24,133.2-115.45c3.51-3.04,7.88-4.58,12.27-4.58,3.68,0,7.37,1.09,10.57,3.27,5,3.43,7.29,9.65,5.69,15.5l-29.36,107.65,58.82-94.28c5.02-8.07,14.69-11.97,23.91-9.67l.95.24v-.22c6.99,1.44,14.23,2.16,21.76,2.16,8.78,0,17.19-.94,25.26-2.84Z"/>
</svg>