<?xml version="1.0" encoding="UTF-8"?>
<svg id="Layer_1" data-name="Layer 1" xmlns="http://www.w3.org/2000/svg" viewBox="0 0 1080 1080">
  <defs>
    <style>
      .cls-1 {
        fill: #fff;
      }
    </style>
  </defs>
  <g>
    <path class="cls-1" d="m342.05,511.79c-5.27-3.08-9.38-7.24-12.33-12.47-2.95-5.24-4.43-11.06-4.43-17.47s1.48-12.23,4.43-17.47,7.06-9.39,12.33-12.47c5.27-3.08,11.2-4.62,17.8-4.62,5.14,0,10.09,1.19,14.85,3.57,4.76,2.38,8.73,5.62,11.9,9.71,3.17,4.09,5.17,8.58,6,13.47h-13.04c-.7-2.79-2.03-5.28-4-7.47-1.97-2.19-4.33-3.89-7.09-5.09-2.76-1.21-5.63-1.81-8.62-1.81-4.32,0-8.12.95-11.42,2.86-3.3,1.9-5.87,4.54-7.71,7.9-1.84,3.36-2.76,7.17-2.76,11.42s.92,8.06,2.76,11.42c1.84,3.36,4.41,6,7.71,7.9,3.3,1.9,7.11,2.86,11.42,2.86,2.92,0,5.77-.6,8.57-1.81,2.79-1.2,5.19-2.9,7.19-5.09,2-2.19,3.35-4.68,4.05-7.47h12.95c-.76,4.89-2.73,9.38-5.9,13.47-3.17,4.09-7.14,7.33-11.9,9.71-4.76,2.38-9.74,3.57-14.95,3.57-6.6,0-12.54-1.54-17.8-4.62Z"/>
    <path class="cls-1" d="m399.84,444.91h11.8v70.26h-11.8v-70.26Z"/>
    <path class="cls-1" d="m432.68,512.88c-4-2.41-7.12-5.71-9.38-9.9-2.25-4.19-3.38-8.82-3.38-13.9s1.13-9.71,3.38-13.9c2.25-4.19,5.38-7.49,9.38-9.9,4-2.41,8.5-3.62,13.52-3.62s9.2,1.17,12.95,3.52c3.74,2.35,6.63,5.59,8.66,9.71,2.03,4.13,3.05,8.85,3.05,14.19s-1.02,10.06-3.05,14.18c-2.03,4.13-4.92,7.36-8.66,9.71-3.75,2.35-8.09,3.52-13.04,3.52s-9.42-1.21-13.42-3.62Zm22.66-9.81c2.35-1.4,4.2-3.32,5.57-5.76,1.36-2.44,2.05-5.19,2.05-8.23s-.68-5.79-2.05-8.23c-1.37-2.44-3.22-4.36-5.57-5.76-2.35-1.4-4.98-2.09-7.9-2.09s-5.49.7-7.9,2.09c-2.41,1.4-4.3,3.32-5.66,5.76-1.37,2.44-2.05,5.19-2.05,8.23s.68,5.79,2.05,8.23c1.36,2.44,3.25,4.36,5.66,5.76,2.41,1.4,5.05,2.09,7.9,2.09s5.55-.7,7.9-2.09Zm7.71-40.08h11.81v52.17h-11.81v-52.17Z"/>
    <path class="cls-1" d="m486.37,463h11.71v14.95l-4.57,5.52c.25-4.25,1.22-8.01,2.9-11.28,1.68-3.27,3.89-5.84,6.62-7.71,2.73-1.87,5.84-2.81,9.33-2.81,1.21,0,2.6.16,4.19.48v11.14h-4.57c-2.67,0-5.03.52-7.09,1.57-2.06,1.05-3.7,2.68-4.9,4.9-1.21,2.22-1.81,4.98-1.81,8.28v27.13h-11.8v-52.17Z"/>
    <path class="cls-1" d="m522.46,444.91h12v10.95h-12v-10.95Zm.09,18.09h11.8v52.17h-11.8v-52.17Z"/>
    <path class="cls-1" d="m540.64,463h12.38l14.66,40.46,14.66-40.46h12.28l-19.14,52.17h-15.61l-19.23-52.17Z"/>
    <path class="cls-1" d="m609.04,512.88c-4.22-2.41-7.54-5.71-9.95-9.9s-3.62-8.82-3.62-13.9,1.21-9.6,3.62-13.76c2.41-4.16,5.73-7.46,9.95-9.9,4.22-2.44,8.87-3.67,13.95-3.67s9.6,1.22,13.76,3.67c4.16,2.44,7.44,5.74,9.85,9.9,2.41,4.16,3.62,8.74,3.62,13.76s-1.21,9.71-3.62,13.9c-2.41,4.19-5.7,7.49-9.85,9.9-4.16,2.41-8.78,3.62-13.85,3.62s-9.63-1.21-13.85-3.62Zm21.66-9.85c2.35-1.43,4.2-3.36,5.57-5.81,1.36-2.44,2.05-5.16,2.05-8.14s-.68-5.7-2.05-8.14c-1.37-2.44-3.22-4.36-5.57-5.76-2.35-1.4-4.95-2.09-7.81-2.09s-5.47.7-7.85,2.09c-2.38,1.4-4.25,3.32-5.62,5.76-1.37,2.44-2.05,5.16-2.05,8.14s.68,5.7,2.05,8.14c1.36,2.44,3.24,4.38,5.62,5.81,2.38,1.43,5,2.14,7.85,2.14s5.46-.71,7.81-2.14Z"/>
    <path class="cls-1" d="m667.16,488.7l-16.66-25.7h12.95l11.71,18.28,11.61-18.28h12.95l-16.66,25.7,17.23,26.47h-12.95l-12.19-18.85-12.47,18.85h-12.66l17.14-26.47Z"/>
    <path class="cls-1" d="m342.05,591.79c-5.27-3.08-9.38-7.24-12.33-12.47-2.95-5.24-4.43-11.06-4.43-17.47s1.48-12.23,4.43-17.47,7.06-9.39,12.33-12.47c5.27-3.08,11.2-4.62,17.8-4.62,5.14,0,10.09,1.19,14.85,3.57s8.73,5.62,11.9,9.71c3.17,4.09,5.17,8.58,6,13.47h-13.04c-.7-2.79-2.03-5.28-4-7.47-1.97-2.19-4.33-3.89-7.09-5.09-2.76-1.21-5.63-1.81-8.62-1.81-4.32,0-8.12.95-11.42,2.86-3.3,1.9-5.87,4.54-7.71,7.9-1.84,3.37-2.76,7.17-2.76,11.42s.92,8.06,2.76,11.42c1.84,3.36,4.41,6,7.71,7.9,3.3,1.9,7.11,2.86,11.42,2.86,2.92,0,5.77-.6,8.57-1.81,2.79-1.21,5.19-2.9,7.19-5.09s3.35-4.68,4.05-7.47h12.95c-.76,4.89-2.73,9.38-5.9,13.47-3.17,4.09-7.14,7.33-11.9,9.71-4.76,2.38-9.74,3.57-14.95,3.57-6.6,0-12.54-1.54-17.8-4.62Z"/>
    <path class="cls-1" d="m399.75,543h11.71v14.95l-4.57,5.52c.25-4.25,1.22-8.01,2.9-11.28,1.68-3.27,3.89-5.84,6.62-7.71,2.73-1.87,5.84-2.81,9.33-2.81,1.21,0,2.6.16,4.19.48v11.14h-4.57c-2.67,0-5.03.52-7.09,1.57-2.06,1.05-3.7,2.68-4.9,4.9-1.21,2.22-1.81,4.98-1.81,8.28v27.13h-11.8v-52.17Z"/>
    <path class="cls-1" d="m443.78,592.84c-4.22-2.44-7.54-5.74-9.95-9.9-2.41-4.16-3.62-8.77-3.62-13.85s1.21-9.62,3.62-13.8,5.73-7.5,9.95-9.95c4.22-2.44,8.87-3.67,13.95-3.67s9.27,1.22,13.33,3.67c4.06,2.44,7.25,5.76,9.57,9.95,2.32,4.19,3.47,8.79,3.47,13.8,0,1.65-.16,3.27-.48,4.86l-11.23-4.76c0-3.11-.64-5.9-1.9-8.38-1.27-2.47-3.05-4.43-5.33-5.85-2.29-1.43-4.76-2.14-7.43-2.14-2.92,0-5.57.71-7.95,2.14s-4.27,3.38-5.66,5.85c-1.4,2.48-2.09,5.27-2.09,8.38s.7,5.79,2.09,8.23c1.4,2.44,3.28,4.38,5.66,5.81,2.38,1.43,5.03,2.14,7.95,2.14,2.54,0,4.9-.62,7.09-1.86s3.82-2.9,4.9-5h12.95c-1.46,5.4-4.47,9.74-9.04,13.04-4.57,3.3-9.87,4.95-15.9,4.95-5.08,0-9.73-1.22-13.95-3.67Zm-2.81-28.7h33.89l8.76,9.81h-42.46l-.19-9.81Z"/>
    <path class="cls-1" d="m502.18,592.88c-4-2.41-7.12-5.71-9.38-9.9-2.25-4.19-3.38-8.82-3.38-13.9s1.13-9.71,3.38-13.9c2.25-4.19,5.38-7.49,9.38-9.9,4-2.41,8.5-3.62,13.52-3.62s9.2,1.17,12.95,3.52c3.74,2.35,6.63,5.58,8.66,9.71,2.03,4.13,3.05,8.85,3.05,14.18s-1.02,10.06-3.05,14.18c-2.03,4.13-4.92,7.36-8.66,9.71-3.75,2.35-8.09,3.52-13.04,3.52s-9.42-1.21-13.42-3.62Zm22.66-9.81c2.35-1.39,4.2-3.32,5.57-5.76,1.36-2.44,2.05-5.19,2.05-8.24s-.68-5.79-2.05-8.23c-1.37-2.44-3.22-4.36-5.57-5.76-2.35-1.4-4.98-2.09-7.9-2.09s-5.49.7-7.9,2.09c-2.41,1.4-4.3,3.32-5.66,5.76-1.37,2.44-2.05,5.19-2.05,8.23s.68,5.79,2.05,8.24c1.36,2.44,3.25,4.36,5.66,5.76,2.41,1.4,5.05,2.09,7.9,2.09s5.55-.7,7.9-2.09Zm7.71-40.08h11.81v52.17h-11.81v-52.17Z"/>
    <path class="cls-1" d="m562.82,593.69c-2.73-1.55-4.73-3.76-6-6.62-1.27-2.86-1.9-6.22-1.9-10.09v-46.55h11.8v12.57h14.57v11.33h-14.57v21.8c0,2.86.65,4.92,1.95,6.19,1.3,1.27,3.16,1.9,5.57,1.9h7.04v11.8h-8.09c-4.19,0-7.65-.78-10.38-2.33Z"/>
    <path class="cls-1" d="m589.09,524.91h12v10.95h-12v-10.95Zm.09,18.09h11.8v52.17h-11.8v-52.17Z"/>
    <path class="cls-1" d="m607.28,543h12.38l14.66,40.46,14.66-40.46h12.28l-19.14,52.17h-15.61l-19.23-52.17Z"/>
    <path class="cls-1" d="m675.68,592.84c-4.22-2.44-7.54-5.74-9.95-9.9-2.41-4.16-3.62-8.77-3.62-13.85s1.21-9.62,3.62-13.8,5.73-7.5,9.95-9.95c4.22-2.44,8.87-3.67,13.95-3.67s9.27,1.22,13.33,3.67c4.06,2.44,7.25,5.76,9.57,9.95,2.32,4.19,3.47,8.79,3.47,13.8,0,1.65-.16,3.27-.48,4.86l-11.23-4.76c0-3.11-.64-5.9-1.9-8.38-1.27-2.47-3.05-4.43-5.33-5.85-2.29-1.43-4.76-2.14-7.43-2.14-2.92,0-5.57.71-7.95,2.14s-4.27,3.38-5.66,5.85c-1.4,2.48-2.09,5.27-2.09,8.38s.7,5.79,2.09,8.23c1.4,2.44,3.28,4.38,5.66,5.81,2.38,1.43,5.03,2.14,7.95,2.14,2.54,0,4.9-.62,7.09-1.86s3.82-2.9,4.9-5h12.95c-1.46,5.4-4.47,9.74-9.04,13.04-4.57,3.3-9.87,4.95-15.9,4.95-5.08,0-9.73-1.22-13.95-3.67Zm-2.81-28.7h33.89l8.76,9.81h-42.46l-.19-9.81Z"/>
    <path class="cls-1" d="m729.94,594.22c-2.7-1.46-4.78-3.55-6.24-6.28-1.46-2.73-2.19-5.84-2.19-9.33h11.61c.06,2.28.63,4.05,1.71,5.28,1.08,1.24,2.67,1.86,4.76,1.86,1.97,0,3.46-.44,4.47-1.33,1.01-.89,1.52-2.16,1.52-3.81,0-1.14-.38-2.13-1.14-2.95-.76-.82-1.7-1.54-2.81-2.14-1.11-.6-2.65-1.32-4.62-2.14-2.98-1.27-5.43-2.48-7.33-3.62-1.9-1.14-3.52-2.73-4.86-4.76-1.33-2.03-2-4.6-2-7.71s.71-5.85,2.14-8.23,3.43-4.2,6-5.47c2.57-1.27,5.47-1.9,8.71-1.9,3.68,0,6.84.71,9.47,2.14,2.63,1.43,4.63,3.43,6,6,1.36,2.57,2.01,5.54,1.95,8.9h-11.61c0-1.9-.49-3.38-1.48-4.43-.98-1.05-2.43-1.57-4.33-1.57-1.59,0-2.83.43-3.71,1.29-.89.86-1.33,1.95-1.33,3.28,0,1.08.35,2.02,1.05,2.81.7.79,1.6,1.49,2.71,2.09,1.11.6,2.62,1.29,4.52,2.05,3.05,1.33,5.52,2.55,7.43,3.67,1.9,1.11,3.55,2.71,4.95,4.81,1.4,2.09,2.09,4.73,2.09,7.9s-.71,5.95-2.14,8.33-3.51,4.22-6.24,5.52c-2.73,1.3-5.9,1.95-9.52,1.95s-6.87-.73-9.57-2.19Z"/>
    <path class="cls-1" d="m787.96,528.53h12.19v55.03h24.37v11.61h-36.56v-66.64Z"/>
    <path class="cls-1" d="m817,528.53h47.22v11.71h-47.22v-11.71Zm17.23,9.23h12.66v57.41h-12.66v-57.41Z"/>
    <path class="cls-1" d="m871.83,528.53h21.61c6.16,0,11.82,1.48,16.99,4.43,5.17,2.95,9.27,6.97,12.28,12.04,3.01,5.08,4.52,10.66,4.52,16.75s-1.51,11.79-4.52,16.9c-3.01,5.11-7.09,9.14-12.23,12.09s-10.82,4.43-17.04,4.43h-21.61v-66.64Zm32.27,52.12c3.24-1.94,5.79-4.57,7.66-7.9,1.87-3.33,2.81-6.96,2.81-10.9s-.94-7.57-2.81-10.9c-1.87-3.33-4.43-5.96-7.66-7.9-3.24-1.93-6.82-2.9-10.76-2.9h-9.23v43.41h9.23c3.93,0,7.52-.97,10.76-2.9Z"/>
  </g>
  <g>
    <path class="cls-1" d="m336.1,620.68h11.32v2.43h-8.75v18.16h9.08v2.43h-11.64v-23.03Zm2.37,10.23h8.72v2.43h-8.72v-2.43Z"/>
    <path class="cls-1" d="m354.34,642.83c-1.41-.82-2.53-1.94-3.36-3.35-.82-1.42-1.23-2.97-1.23-4.66s.41-3.27,1.23-4.69c.82-1.41,1.94-2.53,3.36-3.35,1.42-.82,2.98-1.23,4.69-1.23,1.43,0,2.74.28,3.93.84,1.2.56,2.2,1.34,3.01,2.33.81,1,1.34,2.15,1.58,3.47h-2.57c-.35-1.29-1.08-2.34-2.17-3.12-1.1-.79-2.36-1.18-3.78-1.18-1.25,0-2.4.31-3.44.92-1.04.61-1.87,1.45-2.48,2.5-.61,1.05-.92,2.23-.92,3.52s.31,2.43.92,3.49c.61,1.05,1.44,1.89,2.48,2.5,1.04.61,2.19.92,3.44.92,1.4,0,2.66-.39,3.77-1.18,1.11-.79,1.84-1.82,2.19-3.09h2.57c-.24,1.29-.77,2.45-1.6,3.45-.82,1.01-1.83,1.79-3.03,2.33-1.2.55-2.5.82-3.9.82-1.71,0-3.27-.41-4.69-1.23Z"/>
    <path class="cls-1" d="m370.77,619.43h2.47v24.28h-2.47v-24.28Zm11.38,9.87c-.9-.94-2.09-1.42-3.59-1.42-1.03,0-1.95.22-2.76.66-.81.44-1.44,1.05-1.89,1.83-.45.78-.67,1.65-.67,2.62l-.95-1.51c.11-1.12.47-2.13,1.08-3.03s1.41-1.6,2.38-2.11c.98-.5,2.06-.76,3.24-.76,1.38,0,2.6.31,3.65.94s1.87,1.5,2.45,2.62c.58,1.12.87,2.41.87,3.88v10.69h-2.47v-10.69c0-1.54-.45-2.77-1.35-3.72Z"/>
    <path class="cls-1" d="m393.53,642.83c-1.43-.82-2.55-1.94-3.37-3.35-.82-1.42-1.23-2.98-1.23-4.69s.41-3.24,1.23-4.66c.82-1.41,1.95-2.53,3.37-3.34,1.42-.81,2.98-1.22,4.67-1.22s3.27.41,4.67,1.22,2.52,1.92,3.34,3.34c.82,1.42,1.23,2.97,1.23,4.66s-.41,3.27-1.23,4.69c-.82,1.41-1.94,2.53-3.34,3.35s-2.96,1.23-4.67,1.23-3.25-.41-4.67-1.23Zm8.09-2.02c1.03-.61,1.85-1.45,2.45-2.5.6-1.05.9-2.23.9-3.52s-.31-2.43-.92-3.49c-.61-1.05-1.44-1.88-2.47-2.48-1.03-.6-2.17-.9-3.42-.9s-2.39.3-3.42.9c-1.03.6-1.85,1.43-2.45,2.48-.6,1.05-.9,2.22-.9,3.49s.31,2.47.92,3.52c.61,1.05,1.44,1.89,2.47,2.5,1.03.61,2.17.92,3.42.92s2.39-.31,3.42-.92Z"/>
    <path class="cls-1" d="m411,619.43h2.5v3.52h-2.5v-3.52Zm.03,6.48h2.47v17.8h-2.47v-17.8Z"/>
    <path class="cls-1" d="m418.4,625.91h2.47v17.8h-2.47v-17.8Zm11.22,3.39c-.88-.94-2.06-1.42-3.55-1.42-.99,0-1.88.22-2.67.66-.79.44-1.41,1.05-1.86,1.83-.45.78-.67,1.65-.67,2.62l-.92-1.51c.11-1.12.46-2.13,1.05-3.03.59-.9,1.37-1.6,2.34-2.11.96-.5,2.03-.76,3.19-.76,1.36,0,2.56.31,3.6.94,1.04.62,1.85,1.5,2.42,2.62s.86,2.41.86,3.88v10.69h-2.47v-10.69c0-1.54-.44-2.77-1.32-3.72Z"/>
    <path class="cls-1" d="m449.26,647.16c-.64-.64-1.58-.95-2.83-.95h-10.07v-2.4l4.01-5.89,2.14,1.28-3.62,5.1-.66-.49h8.68c1.84,0,3.26.52,4.26,1.56,1,1.04,1.5,2.52,1.5,4.42h-2.47c0-1.12-.32-2-.95-2.63Zm-8.42-7.63c-1.14-.64-2.03-1.52-2.68-2.66s-.97-2.43-.97-3.88c0-1.36.33-2.61.99-3.75.66-1.14,1.55-2.04,2.68-2.71,1.13-.67,2.37-1,3.73-1s2.64.33,3.77,1c1.13.67,2.02,1.57,2.68,2.71.66,1.14.99,2.39.99,3.75s-.33,2.64-.99,3.78c-.66,1.14-1.56,2.04-2.7,2.71-1.14.67-2.4,1-3.78,1s-2.58-.32-3.72-.95Zm6.28-2.11c.77-.46,1.38-1.08,1.83-1.88.45-.79.67-1.64.67-2.57s-.22-1.8-.67-2.58c-.45-.78-1.06-1.39-1.83-1.84s-1.61-.67-2.53-.67-1.76.23-2.53.67c-.77.45-1.37,1.06-1.81,1.84s-.66,1.64-.66,2.58.22,1.84.66,2.62,1.04,1.39,1.81,1.84c.77.45,1.61.67,2.53.67s1.77-.23,2.53-.69Zm.49-9.7l3.12-4.14,1.97,1.45-3.06,4.08-2.04-1.38Z"/>
    <path class="cls-1" d="m466.36,643.7h-2.47l.07-24.28h2.43l-.03,24.28Zm6.97.36c-1.69,0-3.21-.41-4.57-1.23-1.36-.82-2.42-1.93-3.17-3.34-.76-1.4-1.13-2.96-1.13-4.67s.38-3.3,1.13-4.7,1.81-2.52,3.17-3.34c1.36-.82,2.88-1.23,4.57-1.23s3.23.41,4.62,1.23,2.48,1.94,3.27,3.35c.79,1.42,1.18,2.98,1.18,4.69s-.39,3.24-1.18,4.66c-.79,1.41-1.88,2.53-3.27,3.35s-2.93,1.23-4.62,1.23Zm-.2-2.34c1.25,0,2.4-.31,3.44-.92,1.04-.61,1.86-1.44,2.47-2.48.6-1.04.9-2.21.9-3.5s-.3-2.49-.9-3.54c-.6-1.04-1.43-1.87-2.47-2.48-1.04-.61-2.19-.92-3.44-.92s-2.39.31-3.42.92c-1.03.61-1.85,1.44-2.45,2.48-.6,1.04-.9,2.22-.9,3.54s.3,2.46.9,3.5c.6,1.04,1.42,1.87,2.45,2.48,1.03.61,2.17.92,3.42.92Z"/>
    <path class="cls-1" d="m486,625.91h2.43v5.66l-1.09.79c.09-1.29.46-2.46,1.1-3.5.65-1.04,1.48-1.86,2.5-2.45,1.02-.59,2.14-.89,3.37-.89.46,0,.91.05,1.35.16v2.27h-1.38c-1.12,0-2.12.23-2.99.69-.88.46-1.57,1.14-2.07,2.04-.5.9-.76,1.99-.76,3.26v9.77h-2.47v-17.8Z"/>
    <path class="cls-1" d="m498.1,619.43h2.5v3.52h-2.5v-3.52Zm.03,6.48h2.47v17.8h-2.47v-17.8Z"/>
    <path class="cls-1" d="m505.5,619.43h2.47v24.28h-2.47v-24.28Z"/>
    <path class="cls-1" d="m512.87,619.43h2.47v24.28h-2.47v-24.28Z"/>
    <path class="cls-1" d="m520.21,619.43h2.5v3.52h-2.5v-3.52Zm.03,6.48h2.47v17.8h-2.47v-17.8Z"/>
    <path class="cls-1" d="m530.75,642.83c-1.39-.82-2.48-1.94-3.27-3.35-.79-1.42-1.18-2.97-1.18-4.66s.39-3.27,1.18-4.69c.79-1.41,1.88-2.53,3.27-3.35s2.93-1.23,4.62-1.23,3.21.41,4.57,1.23c1.36.82,2.42,1.94,3.17,3.34.76,1.4,1.14,2.97,1.14,4.7s-.38,3.27-1.14,4.67c-.76,1.4-1.81,2.52-3.17,3.34-1.36.82-2.88,1.23-4.57,1.23s-3.23-.41-4.62-1.23Zm8.24-2.02c1.03-.61,1.85-1.44,2.45-2.48.6-1.04.9-2.21.9-3.5s-.3-2.49-.9-3.54c-.6-1.04-1.42-1.87-2.45-2.48-1.03-.61-2.17-.92-3.42-.92s-2.4.31-3.44.92c-1.04.61-1.86,1.44-2.47,2.48-.6,1.04-.9,2.22-.9,3.54s.3,2.46.9,3.5c.6,1.04,1.42,1.87,2.47,2.48,1.04.61,2.19.92,3.44.92s2.39-.31,3.42-.92Zm3.36-14.9h2.47v17.8h-2.47v-17.8Z"/>
    <path class="cls-1" d="m549.71,625.91h2.47v17.8h-2.47v-17.8Zm11.22,3.39c-.88-.94-2.06-1.42-3.55-1.42-.99,0-1.88.22-2.67.66-.79.44-1.41,1.05-1.86,1.83-.45.78-.67,1.65-.67,2.62l-.92-1.51c.11-1.12.46-2.13,1.05-3.03.59-.9,1.37-1.6,2.34-2.11.96-.5,2.03-.76,3.19-.76,1.36,0,2.56.31,3.6.94,1.04.62,1.85,1.5,2.42,2.62s.86,2.41.86,3.88v10.69h-2.47v-10.69c0-1.54-.44-2.77-1.32-3.72Z"/>
    <path class="cls-1" d="m572.3,642.83c-1.41-.82-2.53-1.94-3.36-3.35-.82-1.42-1.23-2.97-1.23-4.66s.41-3.27,1.23-4.69c.82-1.41,1.94-2.53,3.36-3.35,1.42-.82,2.98-1.23,4.69-1.23,1.43,0,2.74.28,3.93.84,1.2.56,2.2,1.34,3.01,2.33.81,1,1.34,2.15,1.58,3.47h-2.57c-.35-1.29-1.08-2.34-2.17-3.12-1.1-.79-2.36-1.18-3.78-1.18-1.25,0-2.4.31-3.44.92-1.04.61-1.87,1.45-2.48,2.5-.61,1.05-.92,2.23-.92,3.52s.31,2.43.92,3.49c.61,1.05,1.44,1.89,2.48,2.5,1.04.61,2.19.92,3.44.92,1.4,0,2.66-.39,3.77-1.18,1.11-.79,1.84-1.82,2.19-3.09h2.57c-.24,1.29-.77,2.45-1.6,3.45-.82,1.01-1.83,1.79-3.03,2.33-1.2.55-2.5.82-3.9.82-1.71,0-3.27-.41-4.69-1.23Z"/>
    <path class="cls-1" d="m592.23,642.83c-1.41-.82-2.53-1.94-3.36-3.35-.82-1.42-1.23-2.97-1.23-4.66s.41-3.27,1.23-4.69c.82-1.41,1.94-2.53,3.36-3.35,1.42-.82,2.98-1.23,4.69-1.23s3.19.41,4.57,1.23,2.47,1.94,3.27,3.35c.8,1.42,1.2,2.98,1.2,4.69,0,.37-.04.75-.13,1.12l-2.37-1.12c0-1.29-.29-2.47-.86-3.52s-1.36-1.89-2.37-2.5c-1.01-.61-2.12-.92-3.32-.92s-2.4.31-3.44.92c-1.04.61-1.86,1.45-2.47,2.5-.6,1.05-.9,2.23-.9,3.52s.3,2.43.9,3.49c.6,1.05,1.42,1.89,2.47,2.5,1.04.61,2.19.92,3.44.92s2.4-.33,3.45-.99c1.05-.66,1.8-1.53,2.24-2.63h2.76c-.55,1.78-1.6,3.21-3.14,4.31-1.55,1.1-3.32,1.65-5.31,1.65-1.71,0-3.27-.41-4.69-1.23Zm-2.35-9.13h14.08l1.88,2.24h-15.92l-.03-2.24Z"/>
    <path class="cls-1" d="m612.08,640.91l-2.83,7.27h-2.14l2.14-7.27h2.83Z"/>
    <path class="cls-1" d="m626.83,642.83c-1.39-.82-2.48-1.94-3.27-3.35-.79-1.42-1.18-2.97-1.18-4.66s.39-3.27,1.18-4.69c.79-1.41,1.88-2.53,3.27-3.35s2.93-1.23,4.62-1.23,3.21.41,4.57,1.23c1.36.82,2.42,1.94,3.17,3.34.76,1.4,1.14,2.97,1.14,4.7s-.38,3.27-1.14,4.67c-.76,1.4-1.81,2.52-3.17,3.34-1.36.82-2.88,1.23-4.57,1.23s-3.23-.41-4.62-1.23Zm8.24-2.02c1.03-.61,1.85-1.44,2.45-2.48.6-1.04.9-2.21.9-3.5s-.3-2.49-.9-3.54c-.6-1.04-1.42-1.87-2.45-2.48-1.03-.61-2.17-.92-3.42-.92s-2.4.31-3.44.92c-1.04.61-1.86,1.44-2.47,2.48-.6,1.04-.9,2.22-.9,3.54s.3,2.46.9,3.5c.6,1.04,1.42,1.87,2.47,2.48,1.04.61,2.19.92,3.44.92s2.39-.31,3.42-.92Zm3.36-14.9h2.47v17.8h-2.47v-17.8Z"/>
    <path class="cls-1" d="m645.8,625.91h2.47v17.8h-2.47v-17.8Zm9.64,3.17c-.79-.8-1.78-1.2-2.96-1.2-.79,0-1.51.19-2.15.56-.65.37-1.15.89-1.51,1.55-.36.66-.54,1.39-.54,2.2l-.99-1.09c.09-1.05.4-2.01.94-2.86.54-.86,1.22-1.51,2.06-1.97.83-.46,1.73-.69,2.7-.69,1.18,0,2.24.27,3.16.82.92.55,1.64,1.33,2.15,2.34s.77,2.16.77,3.45v11.51h-2.43v-11.51c0-1.27-.39-2.31-1.18-3.11Zm10.82,0c-.77-.8-1.75-1.2-2.96-1.2-.79,0-1.51.19-2.15.56-.65.37-1.16.89-1.53,1.55s-.56,1.39-.56,2.2l-1.68-1.48c.15-.99.54-1.87,1.15-2.65.61-.78,1.39-1.39,2.32-1.83.93-.44,1.91-.66,2.94-.66,1.16,0,2.21.27,3.14.82.93.55,1.66,1.33,2.17,2.34s.77,2.16.77,3.45v11.51h-2.47v-11.51c0-1.27-.38-2.31-1.15-3.11Z"/>
    <path class="cls-1" d="m674.28,625.91h2.47v4.77l.03,18.68h-2.43l-.07-23.45Zm14.1.87c1.39.82,2.48,1.94,3.27,3.35.79,1.42,1.18,2.98,1.18,4.69s-.39,3.24-1.18,4.66c-.79,1.41-1.88,2.53-3.27,3.35-1.39.82-2.93,1.23-4.62,1.23s-3.21-.41-4.57-1.23-2.42-1.93-3.17-3.34c-.76-1.4-1.13-2.96-1.13-4.67s.38-3.3,1.13-4.7c.76-1.4,1.81-2.52,3.17-3.34s2.88-1.23,4.57-1.23,3.23.41,4.62,1.23Zm-8.24,2.02c-1.03.61-1.85,1.44-2.45,2.48-.6,1.04-.91,2.22-.91,3.54s.3,2.46.91,3.5c.6,1.04,1.42,1.87,2.45,2.48,1.03.61,2.17.92,3.42.92s2.4-.31,3.44-.92c1.04-.61,1.86-1.44,2.47-2.48s.91-2.21.91-3.5-.3-2.49-.91-3.54c-.6-1.04-1.43-1.87-2.47-2.48-1.04-.61-2.19-.92-3.44-.92s-2.39.31-3.42.92Z"/>
    <path class="cls-1" d="m696.42,619.43h2.47v24.28h-2.47v-24.28Z"/>
    <path class="cls-1" d="m703.76,619.43h2.5v3.52h-2.5v-3.52Zm.03,6.48h2.47v17.8h-2.47v-17.8Z"/>
    <path class="cls-1" d="m711.88,621.98c.48-.8,1.16-1.43,2.02-1.88s1.87-.67,3.01-.67h2.27v2.43h-2.27c-1.03,0-1.84.27-2.42.82-.58.55-.87,1.22-.87,2.01v1.22h5.56v2.4h-5.56v15.39h-2.47v-19.01c0-1.01.24-1.91.72-2.71Z"/>
    <path class="cls-1" d="m728.56,642.65l-.07,2.07-7.8-18.82h2.6l6.55,16.02h-.86l6.55-16.02h2.63l-9.87,23.42h-2.66l2.93-6.68Z"/>
    <path class="cls-1" d="m740.8,619.43h2.5v3.52h-2.5v-3.52Zm.03,6.48h2.47v17.8h-2.47v-17.8Z"/>
    <path class="cls-1" d="m748.2,625.91h2.47v17.8h-2.47v-17.8Zm11.22,3.39c-.88-.94-2.06-1.42-3.55-1.42-.99,0-1.88.22-2.67.66-.79.44-1.41,1.05-1.86,1.83-.45.78-.67,1.65-.67,2.62l-.92-1.51c.11-1.12.46-2.13,1.05-3.03.59-.9,1.37-1.6,2.34-2.11.96-.5,2.03-.76,3.19-.76,1.36,0,2.56.31,3.6.94,1.04.62,1.85,1.5,2.42,2.62s.86,2.41.86,3.88v10.69h-2.47v-10.69c0-1.54-.44-2.77-1.32-3.72Z"/>
    <path class="cls-1" d="m779.05,647.16c-.64-.64-1.58-.95-2.83-.95h-10.07v-2.4l4.01-5.89,2.14,1.28-3.62,5.1-.66-.49h8.68c1.84,0,3.26.52,4.26,1.56,1,1.04,1.5,2.52,1.5,4.42h-2.47c0-1.12-.32-2-.95-2.63Zm-8.42-7.63c-1.14-.64-2.03-1.52-2.68-2.66s-.97-2.43-.97-3.88c0-1.36.33-2.61.99-3.75.66-1.14,1.55-2.04,2.68-2.71,1.13-.67,2.37-1,3.73-1s2.64.33,3.77,1c1.13.67,2.02,1.57,2.68,2.71.66,1.14.99,2.39.99,3.75s-.33,2.64-.99,3.78c-.66,1.14-1.56,2.04-2.7,2.71-1.14.67-2.4,1-3.78,1s-2.58-.32-3.72-.95Zm6.28-2.11c.77-.46,1.38-1.08,1.83-1.88.45-.79.67-1.64.67-2.57s-.22-1.8-.67-2.58c-.45-.78-1.06-1.39-1.83-1.84s-1.61-.67-2.53-.67-1.76.23-2.53.67c-.77.45-1.37,1.06-1.81,1.84s-.66,1.64-.66,2.58.22,1.84.66,2.62,1.04,1.39,1.81,1.84c.77.45,1.61.67,2.53.67s1.77-.23,2.53-.69Zm.49-9.7l3.12-4.14,1.97,1.45-3.06,4.08-2.04-1.38Z"/>
    <path class="cls-1" d="m799.35,642.65l-.07,2.07-7.8-18.82h2.6l6.55,16.02h-.86l6.55-16.02h2.63l-9.87,23.42h-2.66l2.93-6.68Z"/>
    <path class="cls-1" d="m814.35,642.83c-1.43-.82-2.55-1.94-3.37-3.35-.82-1.42-1.23-2.98-1.23-4.69s.41-3.24,1.23-4.66c.82-1.41,1.95-2.53,3.37-3.34,1.42-.81,2.98-1.22,4.67-1.22s3.27.41,4.67,1.22,2.52,1.92,3.34,3.34c.82,1.42,1.23,2.97,1.23,4.66s-.41,3.27-1.23,4.69c-.82,1.41-1.94,2.53-3.34,3.35s-2.96,1.23-4.67,1.23-3.25-.41-4.67-1.23Zm8.09-2.02c1.03-.61,1.85-1.45,2.45-2.5.6-1.05.9-2.23.9-3.52s-.31-2.43-.92-3.49c-.61-1.05-1.44-1.88-2.47-2.48-1.03-.6-2.17-.9-3.42-.9s-2.39.3-3.42.9c-1.03.6-1.85,1.43-2.45,2.48-.6,1.05-.9,2.22-.9,3.49s.31,2.47.92,3.52c.61,1.05,1.44,1.89,2.47,2.5,1.03.61,2.17.92,3.42.92s2.39-.31,3.42-.92Z"/>
    <path class="cls-1" d="m834.89,643.11c-1.15-.64-2.04-1.54-2.68-2.7-.64-1.16-.95-2.49-.95-3.98v-10.53h2.47v10.53c0,1.01.21,1.91.64,2.71s1.04,1.42,1.83,1.86c.79.44,1.69.66,2.7.66s1.86-.22,2.63-.66,1.37-1.06,1.79-1.86.64-1.71.64-2.71v-10.53h2.43v10.53c0,1.49-.32,2.82-.95,3.98-.64,1.16-1.52,2.06-2.67,2.7s-2.45.95-3.91.95-2.81-.32-3.96-.95Z"/>
    <path class="cls-1" d="m849.71,640.64h3.06v3.06h-3.06v-3.06Z"/>
    <path class="cls-1" d="m855.53,640.64h3.06v3.06h-3.06v-3.06Z"/>
    <path class="cls-1" d="m861.35,640.64h3.06v3.06h-3.06v-3.06Z"/>
  </g>
  <path class="cls-1" d="m237.04,541.52c-3.93-2.3-7.05-5.42-9.35-9.35-2.31-3.93-3.46-8.27-3.46-13.02s1.15-9.09,3.46-13.02c2.3-3.93,5.42-7.05,9.35-9.35,3.93-2.3,8.27-3.46,13.02-3.46s9.18,1.14,13.13,3.42c3.95,2.28,7.07,5.4,9.35,9.35,2.28,3.95,3.42,8.3,3.42,13.06s-1.14,9.1-3.42,13.06c-2.28,3.95-5.4,7.07-9.35,9.35-3.95,2.28-8.33,3.42-13.13,3.42s-9.09-1.15-13.02-3.46Z"/>
  <path class="cls-1" d="m258.33,558.61s-.01.02-.01.02c-.13.23-.27.47-.4.7-.3.51-.6,1.02-.9,1.53-.95,1.56-1.94,3.08-2.98,4.56-1.38,1.97-2.84,3.85-4.37,5.66-.9,1.06-1.83,2.1-2.79,3.11-5.13,5.42-11.05,10.06-17.74,13.93-12.17,7.03-25.64,10.54-40.41,10.54s-27.99-3.55-40.08-10.65c-12.1-7.09-21.69-16.69-28.79-28.79-7.1-12.09-10.65-25.45-10.65-40.08s3.55-27.99,10.65-40.08c7.09-12.09,16.69-21.69,28.79-28.79,12.09-7.09,25.45-10.65,40.08-10.65s28.24,3.52,40.41,10.54c6.69,3.87,12.6,8.51,17.74,13.93.96,1.01,1.89,2.04,2.79,3.11,1.54,1.81,2.99,3.7,4.37,5.66,1.04,1.47,2.03,3,2.98,4.56.03.05.07.1.1.16-.54-.03-1.09-.04-1.65-.04-3.82,0-7.4.7-10.72,2.11-2.13.18-4.23-.84-5.39-2.7l-15.53-24.89,7.75,28.42c.42,1.54-.18,3.19-1.5,4.09-1.85,1.27-4.33,1.13-6.03-.35l-35.17-30.48,29.73,37.03c1.44,1.79,1.56,4.3.31,6.22-1.27,1.94-3.65,2.84-5.88,2.21l-28.38-7.97,27.6,16.46c1.01.6,1.5,1.81,1.18,2.94-.53,1.9-2.17,3.29-4.13,3.5l-79.09,5.01,79.09,5.01c1.97.21,3.6,1.59,4.13,3.5.32,1.13-.17,2.34-1.18,2.94l-27.6,16.46,28.38-7.97c2.23-.63,4.61.27,5.88,2.21,1.25,1.92,1.13,4.43-.31,6.22l-29.73,37.03,35.17-30.48c.93-.8,2.08-1.21,3.24-1.21.97,0,1.94.29,2.79.86,1.32.9,1.92,2.55,1.5,4.09l-7.75,28.42,15.53-24.89c1.33-2.13,3.88-3.16,6.31-2.55l.25.06v-.06c1.84.38,3.76.57,5.74.57,2.32,0,4.54-.25,6.67-.75Z"/>
</svg>